<?xml version="1.0" standalone="no"?>
<!DOCTYPE svg PUBLIC "-//W3C//DTD SVG 20010904//EN"
 "http://www.w3.org/TR/2001/REC-SVG-20010904/DTD/svg10.dtd">
<svg version="1.0" xmlns="http://www.w3.org/2000/svg"
 width="300.000000pt" height="300.000000pt" viewBox="0 0 300.000000 300.000000"
 preserveAspectRatio="xMidYMid meet">
<metadata>
Created by potrace 1.10, written by Peter Selinger 2001-2011
</metadata>
<g transform="translate(0.000000,300.000000) scale(0.100000,-0.100000)"
fill="#000000" stroke="none">
<path d="M1385 2624 c-33 -7 -77 -13 -98 -14 -67 0 -450 -207 -465 -250 -2 -6
3 -13 12 -16 12 -5 10 -13 -14 -52 -16 -26 -47 -86 -70 -133 -35 -74 -40 -90
-29 -107 9 -14 9 -30 1 -63 -12 -51 -4 -113 30 -245 14 -49 23 -95 20 -102 -2
-7 -14 -12 -27 -12 -12 0 -36 -13 -53 -28 -63 -59 -68 -186 -12 -299 26 -51
42 -71 83 -97 l50 -33 27 -109 c60 -243 141 -397 292 -558 95 -102 162 -145
269 -172 78 -20 182 -14 261 16 142 53 316 246 418 462 36 76 90 242 90 274 0
36 34 96 64 111 50 25 76 54 103 113 34 74 42 174 19 235 -18 45 -60 85 -90
85 -28 0 -28 23 -1 129 23 92 25 115 20 224 -3 67 -6 131 -6 142 0 11 -48 91
-106 178 -85 126 -110 157 -125 154 -10 -3 -25 1 -33 9 -46 46 -127 87 -258
128 -125 41 -152 46 -227 45 -47 -1 -112 -7 -145 -15z m353 -59 c132 -41 217
-82 258 -123 8 -7 26 -17 41 -21 20 -5 50 -41 119 -143 l91 -136 7 -139 c6
-123 5 -149 -13 -221 -25 -95 -27 -155 -6 -172 13 -11 11 -16 -13 -39 -16 -14
-31 -32 -33 -39 -3 -8 -11 -10 -21 -7 -11 5 -17 22 -20 56 -2 41 0 49 14 49
21 0 34 41 20 67 -5 10 -10 91 -11 181 -1 89 -5 172 -10 185 -25 65 -125 102
-247 92 -137 -12 -208 -13 -229 -3 -15 7 -35 4 -76 -11 -69 -27 -104 -26 -211
3 -47 12 -92 20 -100 15 -19 -10 -115 -4 -169 11 -40 12 -50 11 -79 -3 -18
-10 -41 -17 -52 -17 -22 0 -94 -64 -114 -101 -8 -16 -14 -46 -14 -68 0 -22 -4
-43 -10 -46 -6 -3 -10 -50 -10 -105 0 -82 -4 -105 -21 -134 -26 -44 -22 -87 8
-101 26 -11 31 -50 8 -59 -10 -3 -27 7 -45 27 -34 37 -35 40 -15 57 20 17 19
33 -10 148 -20 81 -25 120 -23 218 1 116 2 121 39 194 21 41 47 89 58 105 12
17 21 42 21 56 0 21 12 34 56 63 95 63 292 157 353 167 284 50 280 50 459 -6z
m-599 -430 c23 -8 59 -14 79 -13 20 0 48 -3 61 -7 17 -6 22 -5 17 3 -13 21 12
20 94 -4 108 -31 162 -31 236 1 48 21 54 22 35 6 l-25 -19 47 3 c25 2 51 6 57
10 6 4 17 1 25 -5 11 -9 21 -8 46 4 38 19 47 20 31 4 -20 -20 -13 -32 8 -13
21 19 160 33 160 16 0 -5 19 -11 43 -13 38 -3 43 -6 54 -38 10 -29 12 -31 12
-11 1 16 4 22 11 15 5 -5 10 -88 11 -189 1 -136 4 -184 15 -200 24 -34 15 -40
-17 -9 -30 29 -31 29 -173 32 -98 3 -176 -1 -247 -12 -100 -15 -382 -17 -405
-3 -24 14 -227 28 -321 22 l-102 -7 -22 -49 c-24 -53 -43 -66 -33 -21 8 34 24
65 37 74 6 4 11 51 11 112 0 58 4 106 8 106 4 0 8 24 8 54 0 51 2 56 45 95 24
22 53 41 64 41 10 0 32 7 47 15 35 18 32 18 83 0z m209 -484 c42 -17 54 -41
53 -107 -1 -111 -38 -184 -111 -222 -40 -21 -56 -23 -150 -20 -89 3 -112 7
-148 28 -24 13 -51 38 -61 55 -22 36 -41 119 -41 180 0 98 19 106 250 102 110
-2 187 -8 208 -16z m671 9 c88 -12 105 -31 103 -111 -4 -125 -39 -200 -111
-232 -68 -30 -229 -30 -288 1 -52 27 -79 62 -98 125 -27 91 -17 175 25 197 52
28 243 39 369 20z m-422 -40 c-10 -26 -13 -28 -27 -15 -30 27 -78 30 -111 6
l-29 -22 -10 26 c-6 15 -10 28 -10 31 0 2 45 4 99 4 l99 0 -11 -30z m-49 -36
c16 -11 20 -22 16 -38 -9 -36 45 -165 87 -207 73 -73 277 -94 386 -38 55 29
106 103 119 172 8 42 8 42 14 12 4 -16 6 -86 5 -155 -5 -280 -104 -546 -280
-751 -147 -173 -284 -235 -459 -210 -144 21 -279 123 -407 309 -94 136 -176
369 -194 551 -9 86 3 301 16 301 5 0 9 -17 9 -38 0 -50 44 -136 84 -166 112
-84 366 -64 436 33 35 49 78 166 73 195 -4 20 0 28 18 35 35 14 52 13 77 -5z
m-753 -57 c3 -12 7 -86 9 -164 4 -159 0 -166 -54 -112 -80 81 -105 285 -38
316 30 14 76 -9 83 -40z m1527 16 c29 -26 18 -152 -19 -228 -18 -36 -73 -95
-88 -95 -17 0 -7 288 11 318 18 27 69 30 96 5z"/>
<path d="M938 1635 c-30 -17 -42 -45 -33 -75 9 -29 19 -25 55 20 18 23 35 39
37 36 3 -3 -4 -17 -16 -32 -11 -15 -21 -31 -21 -35 0 -20 17 -6 44 36 15 25
31 44 33 41 3 -3 -4 -18 -16 -34 -12 -17 -21 -33 -21 -37 0 -14 31 19 46 48 9
16 18 26 21 23 3 -3 -9 -27 -26 -54 -32 -51 -36 -62 -23 -62 4 0 23 25 41 54
18 30 38 57 44 59 6 2 7 9 3 15 -10 17 -135 15 -168 -3z m4 -57 c-7 -7 -12 -8
-12 -2 0 14 12 26 19 19 2 -3 -1 -11 -7 -17z"/>
<path d="M1307 1395 c-10 -14 -32 -28 -49 -33 -43 -11 -48 -32 -8 -32 17 0 40
5 51 10 21 12 51 64 42 74 -10 10 -17 7 -36 -19z"/>
<path d="M1702 1640 c-60 -14 -88 -59 -63 -99 7 -11 15 -6 40 20 17 19 31 37
31 42 0 4 7 7 16 7 12 0 6 -12 -21 -41 -20 -22 -33 -44 -30 -47 7 -7 85 76 85
91 0 4 7 7 15 7 12 0 6 -13 -20 -46 -19 -26 -35 -52 -35 -57 0 -15 48 32 71
70 13 20 25 30 35 26 7 -3 14 0 14 6 0 26 -71 37 -138 21z m-30 -62 c-7 -7
-12 -8 -12 -2 0 6 3 14 7 17 3 4 9 5 12 2 2 -3 -1 -11 -7 -17z"/>
<path d="M2032 1391 c-14 -20 -35 -32 -57 -37 -36 -6 -43 -26 -12 -32 27 -5
83 27 96 55 18 38 -2 48 -27 14z"/>
<path d="M1365 1099 c-25 -14 -47 -18 -64 -14 -24 6 -25 5 -9 -11 9 -9 39 -20
67 -25 34 -5 66 -19 96 -43 49 -37 64 -38 103 -2 13 12 51 32 85 46 41 17 63
32 65 44 4 17 0 18 -33 13 -20 -3 -47 -1 -61 5 -20 9 -31 8 -64 -11 -41 -23
-68 -22 -121 5 -23 11 -31 10 -64 -7z m235 -28 c0 -5 -8 -12 -19 -16 -10 -3
-26 -14 -36 -25 -25 -27 -45 -25 -85 9 l-35 29 42 -11 c35 -9 48 -8 75 5 38
19 58 22 58 9z"/>
<path d="M1543 888 c-29 -18 -34 -18 -68 -4 -31 13 -48 14 -106 4 -51 -8 -76
-8 -94 0 -13 6 -27 7 -30 3 -8 -13 40 -28 155 -50 57 -11 106 -25 108 -30 2
-6 8 -11 13 -11 6 0 8 4 4 9 -6 11 31 25 44 17 5 -4 11 -2 13 2 1 5 41 15 87
23 96 16 126 41 39 32 -33 -3 -68 0 -93 9 -36 13 -43 12 -72 -4z"/>
<path d="M1361 753 c0 -5 17 -33 37 -63 45 -66 89 -92 135 -79 35 10 92 61
113 102 17 31 9 34 -43 12 -52 -22 -106 -18 -165 10 -52 25 -78 31 -77 18z
m134 -74 c17 -5 44 -7 60 -4 l30 6 -24 -21 c-30 -26 -71 -26 -105 1 -30 23
-35 45 -8 34 9 -4 31 -11 47 -16z"/>
</g>
</svg>
