<?xml version="1.0" encoding="UTF-8"?>
<!DOCTYPE svg PUBLIC "-//W3C//DTD SVG 1.1//EN" "http://www.w3.org/Graphics/SVG/1.1/DTD/svg11.dtd">
<!-- Creator: CorelDRAW X6 -->
<svg xmlns="http://www.w3.org/2000/svg" xml:space="preserve" width="4.2332mm" height="4.2332mm" version="1.1" style="shape-rendering:geometricPrecision; text-rendering:geometricPrecision; image-rendering:optimizeQuality; fill-rule:evenodd; clip-rule:evenodd"
viewBox="0 0 423 423"
 xmlns:xlink="http://www.w3.org/1999/xlink">
 <defs>
  <style type="text/css">
   <![CDATA[
    .fil1 {fill:#FEFEFE}
    .fil0 {fill:#3C6C8E}
   ]]>
  </style>
 </defs>
 <g id="Layer_x0020_1">
  <metadata id="CorelCorpID_0Corel-Layer"/>
  <g id="_128400752">
   <path class="fil0" d="M212 0c117,0 212,95 212,212 0,117 -95,212 -212,212 -117,0 -212,-95 -212,-212 0,-117 95,-212 212,-212z"/>
   <path class="fil1" d="M193 208c-14,20 -54,18 -69,9 -9,-6 -14,-15 -17,-29 -8,33 4,82 22,118 9,19 33,47 52,56 10,5 19,6 31,7 37,1 63,-34 80,-64 14,-24 35,-87 24,-118 -5,17 -7,25 -19,32 -12,6 -32,6 -45,3 -23,-5 -28,-26 -31,-40 -6,-20 -15,-12 -19,2 -2,7 -4,16 -9,23zm42 100c-8,2 -14,7 -24,5 -8,-1 -15,-8 -23,-8 0,3 10,24 22,25 11,1 24,-13 25,-22zm-113 -130c3,-2 5,-6 8,-9 -1,2 -10,24 1,7 1,-2 3,-4 4,-6 -3,6 -7,15 2,5 2,-2 3,-4 4,-6 -7,13 -9,25 0,7 1,-2 2,-4 3,-5 3,-5 8,-7 -6,-9 -10,-1 -22,3 -24,9 -1,4 1,11 7,6zm48 37c12,4 21,-20 13,-14 -5,3 3,3 -13,9 -4,2 -3,4 1,5zm65 -32c4,-4 7,-10 13,-13 0,0 -3,4 -6,8 -9,11 0,6 4,1 3,-4 6,-9 10,-10 -2,4 -4,7 -7,10 -5,6 -4,9 2,3 6,-6 6,-8 13,-14 -5,-5 -18,-5 -25,-2 -3,1 -7,4 -8,7 -2,5 -1,8 3,11zm49 32c5,2 13,-1 16,-8 5,-13 -5,-1 -7,0 -2,1 -5,2 -9,4 -3,1 -5,2 -1,4zm-107 38c5,8 8,5 17,7 5,1 11,7 15,10 7,4 11,-3 15,-6 6,-5 11,-4 17,-7 14,-8 -5,-6 -9,-7 -5,-1 -3,-3 -8,-1 -2,1 -5,4 -8,4 -9,3 -12,-4 -19,-4 -9,0 -6,7 -19,4zm-7 32c8,10 37,4 43,14 10,-8 5,-3 10,-4 3,0 1,-1 8,-2 4,-1 8,-1 11,-2 5,-1 8,0 9,-4 -5,-2 -13,1 -22,-1 -5,-2 -6,-3 -10,-1 -4,2 -4,4 -9,3 -12,-1 -3,-5 -20,-2 -19,4 -16,-3 -21,1zm-64 -117c8,-11 -3,-18 46,-16 20,1 35,6 55,5 10,-1 17,2 28,0 24,-3 34,-5 59,-4 25,2 12,2 23,8 -1,-8 -5,-6 -4,-15 1,-11 1,-44 -2,-52 -3,2 1,2 -4,4 0,-6 0,-6 -2,-10 -3,-1 -8,-1 -12,-2 -4,-1 -2,-3 -9,-2 -10,2 -10,-1 -19,5 0,0 0,-1 0,-1 0,-1 0,-1 0,-2l0 -2c-14,6 -10,2 -14,2 -4,-1 -3,1 -7,1 -7,1 -1,-1 -9,0 1,-1 1,-2 2,-2 2,-2 2,-1 0,-1 -22,7 -12,10 -47,2 -3,-1 -4,-1 -6,-2 -8,-2 -4,0 -5,1 -2,1 5,3 -5,1 -4,-1 -2,-2 -7,-2 -5,0 1,1 -6,1 -6,0 -13,-6 -20,-3 -3,1 -3,2 -5,3 -7,4 -7,-2 -15,8 -9,7 -7,29 -10,45 -2,10 -5,16 -6,21 -1,3 0,5 0,8zm25 -8c-14,1 -18,4 -18,18 0,11 2,19 7,28 4,7 11,11 23,12 21,3 42,2 49,-21 3,-8 5,-22 1,-29 -6,-12 -48,-9 -62,-8zm114 2c-13,2 -17,5 -17,18 0,10 3,20 8,28 8,13 39,16 56,8 19,-9 21,-43 16,-50 -7,-9 -51,-6 -63,-4zm-145 69c1,-4 2,-47 -4,-53 -4,-4 -10,-4 -14,0 -10,10 1,53 18,53zm224 -16l-1 16c16,-4 23,-32 21,-46 -2,-10 -15,-11 -19,-3 -3,6 -2,25 -2,33z"/>
  </g>
 </g>
</svg>
