<?xml version="1.0" encoding="UTF-8"?>
<!DOCTYPE svg PUBLIC "-//W3C//DTD SVG 1.1//EN" "http://www.w3.org/Graphics/SVG/1.1/DTD/svg11.dtd">
<!-- Creator: CorelDRAW X6 -->
<svg xmlns="http://www.w3.org/2000/svg" xml:space="preserve" width="50mm" height="50mm" version="1.1" style="shape-rendering:geometricPrecision; text-rendering:geometricPrecision; image-rendering:optimizeQuality; fill-rule:evenodd; clip-rule:evenodd"
viewBox="0 0 5000 5000"
 xmlns:xlink="http://www.w3.org/1999/xlink">
 <defs>
  <style type="text/css">
   <![CDATA[
    .fil1 {fill:#FEFEFE}
    .fil0 {fill:#3C6C8E}
   ]]>
  </style>
 </defs>
 <g id="Layer_x0020_1">
  <metadata id="CorelCorpID_0Corel-Layer"/>
  <g id="_310820752">
   <path class="fil0" d="M2500 43c1357,0 2457,1100 2457,2457 0,1357 -1100,2457 -2457,2457 -1357,0 -2457,-1100 -2457,-2457 0,-1357 1100,-2457 2457,-2457z"/>
   <path class="fil1" d="M2283 2461c-166,236 -630,212 -797,103 -102,-66 -163,-172 -196,-341 -93,380 47,950 257,1367 109,218 385,551 607,654 116,54 225,75 362,77 433,6 732,-399 927,-739 162,-282 402,-1006 279,-1365 -62,197 -77,290 -226,373 -134,74 -370,70 -522,36 -268,-62 -322,-303 -365,-459 -64,-232 -178,-141 -225,23 -25,85 -42,190 -99,271zm487 1162c-91,26 -161,79 -277,60 -98,-16 -177,-99 -261,-90 3,37 121,275 253,286 130,11 284,-148 284,-256zm-1310 -1513c35,-29 60,-74 92,-102 -8,27 -114,274 8,82 16,-25 33,-51 49,-73 -33,66 -76,179 20,57 22,-28 34,-45 49,-69 -82,146 -106,289 6,83 14,-25 24,-43 31,-56 34,-58 98,-85 -64,-100 -113,-11 -254,31 -275,110 -13,50 14,126 84,69zm557 432c142,44 246,-229 148,-164 -57,37 34,35 -155,107 -50,19 -40,43 8,58zm750 -374c50,-43 86,-121 155,-152 -2,3 -40,47 -72,89 -101,133 2,72 50,11 38,-48 64,-104 114,-111 -18,49 -49,78 -77,116 -54,74 -45,103 26,30 72,-75 71,-88 154,-164 -55,-54 -205,-55 -289,-23 -35,13 -81,48 -93,77 -22,53 -6,98 33,127zm572 376c58,22 154,-9 186,-95 56,-152 -59,-7 -79,3 -22,11 -54,25 -100,44 -33,13 -60,27 -7,47zm-1247 439c55,91 96,58 201,85 57,15 122,85 171,111 80,43 130,-32 173,-67 68,-56 124,-43 196,-86 160,-95 -62,-68 -107,-78 -53,-12 -38,-38 -98,-15 -26,10 -64,41 -93,50 -107,33 -145,-43 -220,-46 -105,-4 -65,76 -223,46zm-79 375c92,113 430,42 495,160 122,-91 63,-39 118,-48 32,-5 15,-15 98,-29 47,-8 89,-15 133,-23 63,-11 87,-2 110,-50 -55,-18 -148,14 -253,-17 -64,-19 -67,-38 -116,-14 -41,19 -41,46 -107,39 -136,-15 -39,-61 -231,-26 -222,41 -189,-32 -245,6zm-740 -1356c94,-123 -35,-213 535,-184 228,12 406,68 634,56 120,-6 198,19 326,1 278,-39 398,-64 688,-41 285,22 134,25 269,99 -17,-93 -59,-64 -50,-170 13,-124 14,-507 -18,-599 -31,27 17,19 -42,51 0,-68 -5,-73 -26,-118 -38,-9 -98,-9 -138,-22 -48,-15 -26,-33 -110,-20 -116,19 -115,-6 -223,58 -2,-2 -2,-9 -2,-7 -1,-8 -2,-13 -2,-21l4 -21c-166,71 -113,25 -160,18 -44,-7 -33,10 -82,16 -82,10 -10,-15 -104,-3 7,-11 13,-18 21,-28 17,-20 20,-15 -4,-8 -257,83 -144,117 -544,18 -31,-8 -45,-16 -67,-22 -89,-21 -45,4 -55,10 -26,15 56,34 -53,17 -41,-6 -24,-18 -76,-17 -57,1 14,11 -72,6 -74,-4 -150,-65 -237,-39 -32,10 -34,21 -56,32 -81,41 -79,-24 -175,92 -108,81 -79,331 -117,518 -23,116 -54,183 -67,239 -9,40 -6,52 3,91zm293 -93c-157,13 -212,43 -205,205 5,124 19,226 80,326 46,77 129,128 262,144 249,30 489,19 574,-241 30,-93 56,-255 9,-340 -74,-134 -556,-108 -719,-94zm1321 19c-147,24 -192,56 -193,214 -1,121 36,232 90,321 91,148 447,189 653,96 224,-101 248,-497 182,-579 -82,-101 -597,-74 -732,-52zm-1683 807c7,-51 19,-551 -48,-615 -44,-42 -113,-47 -158,0 -113,118 13,612 206,615zm2599 -184l-10 187c190,-44 272,-375 249,-536 -18,-121 -178,-126 -218,-32 -32,74 -21,290 -21,382z"/>
  </g>
 </g>
</svg>
