<?xml version="1.0" encoding="UTF-8"?>
<!DOCTYPE svg PUBLIC "-//W3C//DTD SVG 1.1//EN" "http://www.w3.org/Graphics/SVG/1.1/DTD/svg11.dtd">
<!-- Creator: CorelDRAW X6 -->
<svg xmlns="http://www.w3.org/2000/svg" xml:space="preserve" width="300mm" height="300mm" version="1.1" style="shape-rendering:geometricPrecision; text-rendering:geometricPrecision; image-rendering:optimizeQuality; fill-rule:evenodd; clip-rule:evenodd"
viewBox="0 0 30000 30000"
 xmlns:xlink="http://www.w3.org/1999/xlink">
 <defs>
  <style type="text/css">
   <![CDATA[
    .str0 {stroke:#373435;stroke-width:20}
    .fil1 {fill:#29678E}
    .fil2 {fill:#FDF1F1}
    .fil0 {fill:#FFE5E5}
   ]]>
  </style>
 </defs>
 <g id="Layer_x0020_1">
  <metadata id="CorelCorpID_0Corel-Layer"/>
  <rect class="fil0 str0" x="-3312" y="-3671" width="37095" height="37095"/>
  <g id="_721693120">
   <path class="fil1" d="M7008 5745c-375,588 -903,1649 -1059,2026 -302,727 60,373 51,971 -7,468 -337,684 32,2201 106,451 358,1249 435,1771 35,238 72,279 -160,372 -228,91 -415,58 -686,296 -241,212 -364,394 -490,795 -383,1224 197,3167 1267,3725 843,439 653,760 893,1746 327,1339 810,2673 1427,3753 321,562 720,1124 1084,1553 1341,1582 2552,2821 4970,2814 2265,-7 3629,-1425 4826,-2961 1288,-1655 1987,-3229 2501,-5411 270,-1144 88,-952 997,-1545 1382,-901 1790,-3694 561,-4547 -450,-312 -768,46 -708,-609 105,-1147 696,-1743 520,-3180 -23,-191 -71,-425 -82,-611 -12,-217 121,-1122 -123,-1664l-2116 -3156c-480,-526 -357,-9 -773,-325 -291,-221 -403,-362 -728,-555 -587,-348 -314,-326 -877,-477 -685,-184 -1278,-444 -2002,-634 -2617,-687 -2716,-13 -4535,81 -730,38 -2895,1095 -4206,1966 -792,526 -928,498 -814,946 108,425 45,265 -205,657zm6378 10298c-1002,1425 -3804,1279 -4812,621 -614,-401 -987,-1039 -1183,-2058 -559,2294 287,5731 1550,8252 660,1317 2325,3325 3661,3947 702,327 1358,451 2187,462 2611,37 4419,-2410 5594,-4459 975,-1700 2427,-6072 1684,-8239 -373,1187 -465,1752 -1364,2249 -808,446 -2232,424 -3153,215 -1620,-375 -1945,-1826 -2205,-2769 -385,-1400 -1074,-852 -1360,139 -148,514 -251,1144 -598,1638zm2937 7015c-551,154 -972,476 -1670,360 -593,-98 -1066,-595 -1576,-545 16,221 732,1661 1529,1729 783,67 1714,-891 1717,-1544zm-7905 -9134c210,-174 361,-444 557,-615 -47,164 -690,1655 50,492 96,-153 199,-306 296,-439 -197,398 -459,1078 120,344 131,-166 204,-269 293,-417 -494,884 -641,1747 34,500 82,-152 143,-260 188,-337 203,-348 589,-514 -386,-605 -684,-64 -1533,188 -1658,664 -79,301 84,763 506,414zm3362 2607c858,266 1487,-1383 891,-991 -343,226 207,214 -937,643 -302,113 -244,258 47,348zm4529 -2258c305,-258 516,-730 935,-920 -11,18 -240,285 -435,540 -612,803 12,436 300,68 228,-291 387,-626 689,-668 -108,296 -294,468 -465,702 -327,447 -273,623 157,178 437,-453 428,-532 929,-992 -333,-323 -1237,-333 -1745,-142 -210,79 -488,287 -564,466 -136,320 -38,590 198,767zm3453 2267c351,133 928,-53 1122,-572 340,-915 -355,-44 -478,20 -131,68 -323,154 -604,266 -196,78 -360,165 -40,286zm-7526 2648c331,548 580,350 1212,512 345,89 735,511 1030,669 482,259 784,-194 1042,-407 413,-339 750,-260 1184,-519 965,-576 -375,-411 -645,-472 -322,-72 -229,-231 -590,-88 -156,62 -384,249 -562,303 -645,198 -875,-258 -1328,-276 -632,-24 -394,458 -1343,276zm-479 2262c558,682 2595,251 2987,963 734,-548 382,-233 711,-288 195,-33 93,-91 589,-174 281,-47 536,-93 802,-137 381,-64 526,-11 662,-299 -331,-110 -895,86 -1528,-100 -384,-113 -402,-227 -703,-85 -245,116 -247,280 -644,236 -823,-92 -236,-368 -1397,-154 -1339,247 -1138,-195 -1480,39zm-4466 -8184c565,-744 -209,-1284 3231,-1108 1378,71 2453,409 3826,336 725,-39 1198,115 1968,6 1680,-238 2402,-384 4154,-250 1723,132 808,149 1622,595 -100,-562 -359,-386 -300,-1023 79,-749 86,-3058 -106,-3618 -189,165 101,112 -256,308 -1,-409 -32,-439 -159,-713 -229,-52 -594,-56 -834,-131 -292,-91 -157,-201 -663,-118 -700,114 -695,-37 -1346,348 -9,-12 -11,-56 -11,-45 -7,-46 -13,-78 -11,-125l22 -124c-1001,425 -682,153 -966,107 -265,-43 -199,58 -497,95 -496,61 -60,-92 -627,-21 41,-64 81,-107 127,-170 105,-122 119,-93 -25,-46 -1549,501 -870,706 -3284,106 -185,-46 -270,-98 -406,-130 -539,-125 -270,25 -329,59 -158,92 337,202 -323,103 -250,-38 -144,-110 -457,-105 -346,6 82,66 -436,38 -448,-24 -904,-393 -1431,-235 -195,58 -204,126 -338,194 -490,248 -474,-143 -1055,554 -652,492 -478,1996 -706,3127 -141,697 -327,1103 -405,1442 -55,242 -34,317 20,547zm1768 -560c-950,79 -1278,259 -1240,1240 29,748 117,1362 482,1967 279,463 781,771 1580,868 1500,184 2954,114 3464,-1455 182,-559 337,-1540 56,-2051 -445,-809 -3357,-651 -4341,-569zm7971 117c-884,144 -1159,335 -1165,1290 -5,731 216,1401 546,1937 551,895 2698,1139 3939,579 1353,-609 1496,-3002 1096,-3493 -495,-608 -3603,-446 -4416,-314zm-10159 4868c43,-307 116,-3323 -292,-3712 -268,-255 -683,-284 -952,-2 -679,712 78,3691 1245,3714zm15683 -1110l-57 1130c1145,-267 1641,-2261 1501,-3237 -106,-732 -1072,-759 -1318,-195 -194,445 -125,1749 -125,2302z"/>
   <path class="fil2" d="M13386 16043c-1002,1425 -3804,1279 -4812,621 -614,-401 -987,-1039 -1183,-2058 -559,2294 287,5731 1550,8252 660,1317 2325,3325 3661,3947 702,327 1358,451 2187,462 2611,37 4419,-2410 5594,-4459 975,-1700 2427,-6072 1684,-8239 -373,1187 -465,1752 -1364,2249 -808,446 -2232,424 -3153,215 -1620,-375 -1945,-1826 -2205,-2769 -385,-1400 -1074,-852 -1360,139 -148,514 -251,1144 -598,1638zm2937 7015c-551,154 -972,476 -1670,360 -593,-98 -1066,-595 -1576,-545 16,221 732,1661 1529,1729 783,67 1714,-891 1717,-1544zm-7905 -9134c210,-174 361,-444 557,-615 -47,164 -690,1655 50,492 96,-153 199,-306 296,-439 -197,398 -459,1078 120,344 131,-166 204,-269 293,-417 -494,884 -641,1747 34,500 82,-152 143,-260 188,-337 203,-348 589,-514 -386,-605 -684,-64 -1533,188 -1658,664 -79,301 84,763 506,414zm3362 2607c858,266 1487,-1383 891,-991 -343,226 207,214 -937,643 -302,113 -244,258 47,348zm4529 -2258c305,-258 516,-730 935,-920 -11,18 -240,285 -435,540 -612,803 12,436 300,68 228,-291 387,-626 689,-668 -108,296 -294,468 -465,702 -327,447 -273,623 157,178 437,-453 428,-532 929,-992 -333,-323 -1237,-333 -1745,-142 -210,79 -488,287 -564,466 -136,320 -38,590 198,767zm3453 2267c351,133 928,-53 1122,-572 340,-915 -355,-44 -478,20 -131,68 -323,154 -604,266 -196,78 -360,165 -40,286zm-7526 2648c331,548 580,350 1212,512 345,89 735,511 1030,669 482,259 784,-194 1042,-407 413,-339 750,-260 1184,-519 965,-576 -375,-411 -645,-472 -322,-72 -229,-231 -590,-88 -156,62 -384,249 -562,303 -645,198 -875,-258 -1328,-276 -632,-24 -394,458 -1343,276zm-479 2262c558,682 2595,251 2987,963 734,-548 382,-233 711,-288 195,-33 93,-91 589,-174 281,-47 536,-93 802,-137 381,-64 526,-11 662,-299 -331,-110 -895,86 -1528,-100 -384,-113 -402,-227 -703,-85 -245,116 -247,280 -644,236 -823,-92 -236,-368 -1397,-154 -1339,247 -1138,-195 -1480,39zm-4466 -8184c565,-744 -209,-1284 3231,-1108 1378,71 2453,409 3826,336 725,-39 1198,115 1968,6 1680,-238 2402,-384 4154,-250 1723,132 808,149 1622,595 -100,-562 -359,-386 -300,-1023 79,-749 86,-3058 -106,-3618 -189,165 101,112 -256,308 -1,-409 -32,-439 -159,-713 -229,-52 -594,-56 -834,-131 -292,-91 -157,-201 -663,-118 -700,114 -695,-37 -1346,348 -9,-12 -11,-56 -11,-45 -7,-46 -13,-78 -11,-125l22 -124c-1001,425 -682,153 -966,107 -265,-43 -199,58 -497,95 -496,61 -60,-92 -627,-21 41,-64 81,-107 127,-170 105,-122 119,-93 -25,-46 -1549,501 -870,706 -3284,106 -185,-46 -270,-98 -406,-130 -539,-125 -270,25 -329,59 -158,92 337,202 -323,103 -250,-38 -144,-110 -457,-105 -346,6 82,66 -436,38 -448,-24 -904,-393 -1431,-235 -195,58 -204,126 -338,194 -490,248 -474,-143 -1055,554 -652,492 -478,1996 -706,3127 -141,697 -327,1103 -405,1442 -55,242 -34,317 20,547zm1768 -560c-950,79 -1278,259 -1240,1240 29,748 117,1362 482,1967 279,463 781,771 1580,868 1500,184 2954,114 3464,-1455 182,-559 337,-1540 56,-2051 -445,-809 -3357,-651 -4341,-569zm7971 117c-884,144 -1159,335 -1165,1290 -5,731 216,1401 546,1937 551,895 2698,1139 3939,579 1353,-609 1496,-3002 1096,-3493 -495,-608 -3603,-446 -4416,-314zm-10159 4868c43,-307 116,-3323 -292,-3712 -268,-255 -683,-284 -952,-2 -679,712 78,3691 1245,3714zm15683 -1110l-57 1130c1145,-267 1641,-2261 1501,-3237 -106,-732 -1072,-759 -1318,-195 -194,445 -125,1749 -125,2302z"/>
  </g>
 </g>
</svg>
