<?xml version="1.0" standalone="no"?>
<!DOCTYPE svg PUBLIC "-//W3C//DTD SVG 20010904//EN"
 "http://www.w3.org/TR/2001/REC-SVG-20010904/DTD/svg10.dtd">
<svg version="1.0" xmlns="http://www.w3.org/2000/svg"
 width="300.000000pt" height="300.000000pt" viewBox="0 0 300.000000 300.000000"
 preserveAspectRatio="xMidYMid meet">
<metadata>
Created by potrace 1.10, written by Peter Selinger 2001-2011
</metadata>
<g transform="translate(0.000000,300.000000) scale(0.100000,-0.100000)"
fill="#000000" stroke="none">
<path d="M1380 2624 c-36 -7 -80 -13 -98 -14 -63 0 -446 -209 -460 -250 -2 -6
3 -13 12 -16 12 -5 10 -13 -14 -52 -16 -26 -47 -86 -70 -133 -35 -74 -40 -90
-29 -107 9 -15 9 -30 1 -65 -10 -38 -9 -62 8 -144 10 -54 25 -118 33 -143 17
-55 13 -70 -20 -70 -14 0 -37 -12 -53 -28 -61 -61 -65 -187 -10 -299 26 -51
42 -71 83 -97 l50 -33 27 -109 c61 -244 141 -397 293 -559 71 -76 102 -102
161 -130 190 -94 387 -61 540 90 162 159 274 359 328 584 24 101 41 137 68
146 72 23 130 126 137 246 5 63 2 82 -15 116 -21 41 -59 73 -87 73 -27 0 -27
24 0 129 23 92 25 115 20 224 -3 67 -6 131 -6 142 0 11 -48 91 -106 178 -84
124 -111 157 -125 154 -10 -3 -25 1 -33 9 -46 47 -128 88 -258 129 -125 40
-151 45 -227 44 -47 -1 -114 -7 -150 -15z m350 -44 c68 -22 127 -40 131 -40
11 0 108 -62 138 -89 13 -12 33 -21 45 -21 14 0 31 -15 51 -48 16 -26 46 -70
67 -98 21 -28 38 -56 38 -62 0 -5 4 -12 8 -14 18 -7 49 -77 47 -106 -1 -18 1
-32 4 -32 12 0 11 -196 -1 -245 -7 -27 -13 -52 -13 -55 -1 -3 -7 -30 -14 -62
-17 -68 -12 -83 31 -102 29 -13 30 -14 10 -15 -13 -1 -38 -16 -55 -33 -18 -18
-35 -31 -40 -30 -4 1 -4 -51 -1 -115 9 -171 -28 -370 -100 -543 -92 -219 -271
-423 -419 -478 -178 -67 -351 -21 -501 132 -176 181 -281 408 -317 681 -9 74
-7 235 4 299 1 6 -3 10 -9 9 -7 -1 -15 9 -18 22 -3 13 -20 32 -36 42 -35 20
-38 33 -11 40 29 7 31 35 10 115 -11 40 -18 81 -15 91 2 9 0 15 -5 11 -10 -6
-11 6 -13 156 -2 117 4 136 81 269 30 50 40 77 34 85 -6 6 -7 16 -3 21 34 47
350 211 422 219 28 3 69 10 93 16 136 31 212 27 357 -20z m-936 -1053 c3 -12
7 -86 9 -164 6 -160 2 -167 -53 -112 -38 39 -54 76 -70 166 -15 81 -3 134 33
150 29 14 75 -9 81 -40z m1528 16 c30 -27 18 -154 -23 -234 -17 -34 -71 -89
-88 -89 -14 0 0 293 15 318 18 27 69 30 96 5z"/>
<path d="M1060 2163 c-14 -3 -29 -8 -35 -13 -5 -4 -21 -10 -35 -13 -14 -3 -42
-24 -64 -45 -32 -34 -40 -51 -52 -113 -8 -41 -14 -111 -14 -157 0 -59 -5 -90
-16 -107 -25 -38 -34 -92 -18 -106 8 -6 20 -9 28 -6 12 5 15 -3 14 -38 0 -25
-4 -43 -8 -40 -4 2 -3 -18 1 -46 10 -60 48 -130 87 -157 114 -80 363 -58 432
38 32 45 73 150 74 190 1 30 5 35 33 43 44 13 86 -13 77 -47 -9 -36 45 -164
88 -208 45 -45 86 -58 199 -65 114 -7 185 13 239 67 55 55 75 127 61 216 -5
36 -15 72 -22 80 -7 9 -8 14 -1 14 6 0 14 -5 17 -11 5 -7 13 -5 25 6 16 14 17
21 8 43 -6 15 -12 99 -13 192 -1 158 -7 210 -24 210 -4 0 -17 9 -29 20 -12 11
-34 22 -49 25 -16 2 -45 8 -65 13 -20 5 -39 7 -42 4 -6 -5 -85 -11 -196 -15
-30 -1 -62 2 -71 7 -12 7 -36 2 -79 -13 -70 -26 -130 -25 -200 2 -25 9 -94 21
-105 17 -28 -9 -115 -5 -149 6 -39 14 -51 15 -96 7z m76 -29 c26 -9 58 -14 72
-11 14 3 43 -1 65 -9 49 -17 57 -17 34 0 -18 14 -7 33 13 21 23 -14 159 -45
202 -45 29 0 69 10 104 25 66 29 84 32 34 5 l-35 -19 52 4 c29 2 57 7 63 10 6
4 17 1 25 -5 11 -9 21 -8 46 4 38 19 47 20 31 4 -20 -20 -14 -33 7 -14 21 19
161 34 161 17 0 -5 19 -11 43 -13 38 -3 43 -6 54 -38 10 -29 12 -31 12 -11 1
16 4 22 11 15 5 -5 10 -88 11 -189 1 -136 4 -184 15 -200 24 -34 15 -40 -17
-9 -30 29 -31 29 -173 32 -97 3 -176 -1 -247 -12 -102 -15 -372 -18 -395 -3
-23 14 -235 28 -331 22 l-102 -7 -22 -49 c-13 -27 -26 -49 -31 -49 -16 0 14
88 35 101 5 4 10 54 10 112 1 58 5 103 9 101 4 -3 8 22 8 54 0 58 1 61 45 101
24 22 53 41 64 41 10 0 32 7 47 15 35 18 24 18 80 -1z m-196 -448 c0 -2 -7 -7
-16 -10 -8 -3 -12 -2 -9 4 6 10 25 14 25 6z m402 -35 c47 -15 60 -39 59 -107
-1 -111 -38 -184 -111 -222 -40 -21 -56 -23 -150 -20 -119 4 -168 23 -207 81
-38 58 -57 214 -30 250 6 10 26 22 42 27 41 13 351 6 397 -9z m677 9 c95 -13
104 -26 99 -131 -6 -117 -33 -174 -103 -209 -43 -21 -63 -24 -150 -24 -83 0
-107 4 -142 22 -52 27 -79 61 -98 125 -27 91 -17 175 25 197 52 28 243 39 369
20z m-410 -24 c-5 -12 -12 -29 -15 -39 -6 -17 -7 -17 -26 0 -10 9 -31 19 -45
21 -32 4 -93 -16 -93 -31 -1 -9 -29 59 -30 71 0 1 49 2 109 1 107 -2 109 -3
100 -23z"/>
<path d="M938 1635 c-30 -17 -42 -45 -33 -75 9 -29 20 -25 56 20 18 22 34 38
37 36 2 -3 -5 -17 -17 -32 -22 -28 -27 -44 -12 -44 5 0 21 21 36 46 15 25 29
43 32 40 3 -3 -4 -18 -16 -34 -12 -17 -21 -33 -21 -37 0 -14 31 19 46 48 9 16
18 26 21 23 3 -3 -9 -27 -26 -54 -32 -51 -36 -62 -23 -62 4 0 23 25 41 54 18
30 38 57 44 59 6 2 7 9 3 15 -10 17 -135 15 -168 -3z m4 -57 c-7 -7 -12 -8
-12 -2 0 14 12 26 19 19 2 -3 -1 -11 -7 -17z"/>
<path d="M1307 1395 c-10 -14 -32 -28 -49 -33 -43 -11 -48 -32 -8 -32 17 0 40
5 51 10 21 12 51 64 42 74 -10 10 -17 7 -36 -19z"/>
<path d="M1702 1640 c-60 -14 -88 -59 -63 -99 8 -12 15 -8 37 18 41 49 56 63
62 57 2 -3 -12 -24 -32 -47 -21 -22 -34 -44 -31 -47 7 -7 85 76 85 91 0 4 7 7
15 7 12 0 6 -13 -20 -46 -19 -26 -35 -52 -35 -57 0 -15 48 32 71 70 13 20 25
30 35 26 7 -3 14 0 14 6 0 26 -71 37 -138 21z m-30 -62 c-7 -7 -12 -8 -12 -2
0 6 3 14 7 17 3 4 9 5 12 2 2 -3 -1 -11 -7 -17z"/>
<path d="M2032 1391 c-14 -20 -35 -32 -57 -37 -36 -6 -43 -26 -12 -32 27 -5
83 27 96 55 18 38 -2 48 -27 14z"/>
<path d="M1365 1099 c-25 -14 -47 -18 -64 -14 -24 6 -25 5 -9 -11 9 -9 39 -20
67 -25 34 -5 66 -19 96 -43 49 -37 64 -38 103 -2 13 12 51 32 85 46 40 16 63
32 65 44 3 16 -1 18 -35 14 -21 -3 -48 0 -61 5 -18 8 -31 6 -62 -12 -41 -23
-68 -22 -121 5 -23 11 -31 10 -64 -7z m206 -56 c-25 -18 -52 -33 -59 -33 -16
0 -55 19 -62 31 -3 5 -21 15 -40 23 -27 11 -31 16 -18 21 9 4 30 -1 47 -9 40
-21 79 -20 121 2 24 14 37 16 46 8 8 -8 -1 -19 -35 -43z"/>
<path d="M1543 888 c-29 -18 -34 -18 -70 -3 -32 14 -47 14 -105 4 -51 -9 -74
-9 -93 -1 -13 6 -27 8 -29 3 -9 -13 33 -27 139 -46 67 -12 108 -25 124 -39 20
-17 23 -18 18 -4 -8 23 28 34 50 16 14 -11 15 -11 11 2 -4 12 13 18 80 30 97
17 127 42 40 33 -33 -3 -68 0 -93 9 -36 13 -43 12 -72 -4z m53 -20 c4 -6 3 -8
-4 -4 -6 3 -13 2 -17 -4 -8 -13 -25 -13 -25 -1 0 5 8 12 18 14 9 3 18 5 19 6
1 0 5 -4 9 -11z"/>
<path d="M1360 753 c0 -5 17 -33 38 -63 46 -66 90 -92 135 -79 35 10 92 61
113 102 17 31 9 34 -43 12 -52 -22 -106 -18 -165 10 -52 25 -78 31 -78 18z
m90 -53 c0 -4 6 -7 13 -7 6 0 34 -3 61 -7 33 -4 54 -2 64 7 13 10 14 9 3 -10
-16 -32 -66 -56 -100 -48 -15 3 -38 19 -49 35 -26 35 -26 37 -7 37 8 0 15 -3
15 -7z"/>
</g>
</svg>
